{"title":"The Lives of Others 2006 720p BRRip x264 MP4 AAC-CC","uid":8601486,"size":3119232934,"categoryP":"video","categoryS":"hd___movies","magnet":"?xt=urn:btih:b53e3433c85b8d29a574cebb76f71f38cf9e7ca4&amp;dn=The+Lives+of+Others+2006+720p+BRRip+x264+MP4+AAC-CC&amp;tr=udp%3A%2F%2Ftracker.openbittorrent.com%3A80&amp;tr=udp%3A%2F%2Fopen.demonii.com%3A1337&amp;tr=udp%3A%2F%2Ftracker.coppersurfer.tk%3A6969&amp;tr=udp%3A%2F%2Fexodus.desync.com%3A6969","seeders":4,"leechers":3,"uploader":"Caveman44","files":-1,"time":1371898759,"description":"Source: The Lives of Others 2006 SUBBED 720p BluRay x264-REVEiLLE Thanks!\n\nSubs: Arabic, Croatian, Czech, Danish, Dutch, English, Farsi-Persian, Finnish, French, German, Greek, Hungarian, Indonesian, Norwegian, Romanian, Serbian, Servian, Slovenian, Spanish, Swedish, Turkish, Vietnamese.\n\nSample and Screens included.\n\nGeneral\nComplete name                            : The Lives of Others 2006 720p BRRip x264 MP4 AAC-CC.mp4\nFormat                                   : MPEG-4\nFormat profile                           : Base Media\nCodec ID                                 : isom\nFile size                                : 2.87 GiB\nDuration                                 : 2h 17mn\nOverall bit rate mode                    : Variable\nOverall bit rate                         : 2 987 Kbps\nEncoded date                             : UTC 2013-06-16 16:28:44\nTagged date                              : UTC 2013-06-16 16:28:44\nWriting application                      : Yamb 2.1.0.0 \n\nVideo\nID                                       : 1\nFormat                                   : AVC\nFormat/Info                              : Advanced Video Codec\nFormat profile                           : &lt;a class=&quot;__cf_email__&quot; href=&quot;/cdn-cgi/l/email-protection&quot; data-cfemail=&quot;85cdece2edc5c9b1abb4&quot;&gt;[email&amp;#160;protected]&lt;/a&gt;&lt;script cf-hash='f9e31' type=&quot;text/javascript&quot;&gt;\n/* &lt;![CDATA[ */!function(){try{var t=&quot;currentScript&quot;in document?document.currentScript:function(){for(var t=document.getElementsByTagName(&quot;script&quot;),e=t.length;e--;)if(t[e].getAttribute(&quot;cf-hash&quot;))return t[e]}();if(t&amp;&amp;t.previousSibling){var e,r,n,i,c=t.previousSibling,a=c.getAttribute(&quot;data-cfemail&quot;);if(a){for(e=&quot;&quot;,r=parseInt(a.substr(0,2),16),n=2;a.length-n;n+=2)i=parseInt(a.substr(n,2),16)^r,e+=String.fromCharCode(i);e=document.createTextNode(e),c.parentNode.replaceChild(e,c)}}}catch(u){}}();/* ]]&gt; */&lt;/script&gt;\nFormat settings, CABAC                   : Yes\nFormat settings, ReFrames                : 5 frames\nCodec ID                                 : avc1\nCodec ID/Info                            : Advanced Video Coding\nDuration                                 : 2h 17mn\nSource duration                          : 2h 17mn\nBit rate                                 : 2 619 Kbps\nMaximum bit rate                         : 12.7 Mbps\nWidth                                    : 1 280 pixels\nHeight                                   : 544 pixels\nDisplay aspect ratio                     : 2.35:1\nFrame rate mode                          : Variable\nFrame rate                               : 24.000 fps\nMinimum frame rate                       : 15.932 fps\nMaximum frame rate                       : 24.390 fps\nColor space                              : YUV\nChroma subsampling                       : 4:2:0\nBit depth                                : 8 bits\nScan type                                : Progressive\nBits/(Pixel*Frame)                       : 0.157\nStream size                              : 2.50 GiB (87%)\nSource stream size                       : 2.50 GiB (87%)\nWriting library                          : x264 core 112\nEncoding settings                        : cabac=1 / ref=5 / deblock=1:0:0 / analyse=0x3:0x113 / me=hex / subme=7 / psy=1 / psy_rd=1.00:0.00 / mixed_ref=1 / me_range=16 / chroma_me=1 / trellis=1 / 8x8dct=1 / cqm=0 / deadzone=21,11 / fast_pskip=1 / chroma_qp_offset=-2 / threads=3 / sliced_threads=0 / nr=0 / decimate=1 / interlaced=0 / constrained_intra=0 / bframes=5 / b_pyramid=2 / b_adapt=2 / b_bias=0 / direct=1 / weightb=1 / open_gop=0 / weightp=2 / keyint=240 / keyint_min=24 / scenecut=40 / intra_refresh=0 / rc_lookahead=50 / rc=abr / mbtree=1 / bitrate=2619 / ratetol=1.0 / qcomp=0.60 / qpmin=3 / qpmax=51 / qpstep=4 / ip_ratio=1.40 / aq=1:1.00\nEncoded date                             : UTC 2013-06-17 05:00:41\nTagged date                              : UTC 2013-06-16 16:34:00\nColor primaries                          : BT.709\nTransfer characteristics                 : BT.709\nMatrix coefficients                      : BT.709\n\nAudio\nID                                       : 2\nFormat                                   : AAC\nFormat/Info                              : Advanced Audio Codec\nFormat profile                           : LC\nCodec ID                                 : 40\nDuration                                 : 2h 17mn\nBit rate mode                            : Variable\nBit rate                                 : 384 Kbps\nMaximum bit rate                         : 677 Kbps\nChannel(s)                               : 6 channels\nChannel positions                        : Front: L C R, Side: L R, LFE\nSampling rate                            : 48.0 KHz\nCompression mode                         : Lossy\nDelay relative to video                  : 105ms\nStream size                              : 377 MiB (13%)\nEncoded date                             : UTC 2013-06-16 16:32:50\nTagged date                              : UTC 2013-06-16 16:34:00\n\nEnjoy...\n\nRequested by cmptrluvr's \n\nComing soon: The Great Escape, The Tin Drum, The Nest and more...","torrent":{"xt":"urn:btih:b53e3433c85b8d29a574cebb76f71f38cf9e7ca4","amp;dn":"The+Lives+of+Others+2006+720p+BRRip+x264+MP4+AAC-CC","amp;tr":["udp%3A%2F%2Ftracker.openbittorrent.com%3A80","udp%3A%2F%2Fopen.demonii.com%3A1337","udp%3A%2F%2Ftracker.coppersurfer.tk%3A6969","udp%3A%2F%2Fexodus.desync.com%3A6969"],"infoHash":"b53e3433c85b8d29a574cebb76f71f38cf9e7ca4","infoHashBuffer":{"type":"Buffer","data":[181,62,52,51,200,91,141,41,165,116,206,187,118,247,31,56,207,158,124,164]},"announce":[],"urlList":[]}}